<?xml version="1.0" encoding="utf-8"?>
<!-- Generator: Adobe Illustrator 19.2.0, SVG Export Plug-In . SVG Version: 6.00 Build 0)  -->
<svg version="1.1" id="Layer_1" xmlns="http://www.w3.org/2000/svg" xmlns:xlink="http://www.w3.org/1999/xlink" x="0px" y="0px"
	 width="500px" height="387px" viewBox="0 0 500 387" style="enable-background:new 0 0 500 387;" xml:space="preserve">
<style type="text/css">
	.st0{fill:#FFFFFF;}
</style>
<g>
	<path class="st0" d="M182.3,118.7c0,16.2,10.7,21.4,23.2,21.4c16.1,0,33.5-20.2,44.3-35.1c4.6-5.7,8-9.9,9.6-9.9
		c0.6,0,2.2,6.8,2.7,14.4c-15.4,3.6-21.3,10.1-21.3,17.8c0,7.8,4.5,13.7,15.8,13.7c11.8,0,21.6-9.1,21.8-23.3
		c2.4-0.2,4.9-0.3,7.5-0.4c0.6,12.4,6.3,22.6,16.3,22.7c8,0.1,16.6-5.1,24.6-12.3v0c0,7,3.8,12.5,11.7,12.5c8.5,0,15.8-6,21.2-12.6
		c3.4,9.3,12.5,12.6,22.3,12.6c12.5,0,30.2-11.8,30.2-19.3c0-4.5-2.5-6.9-5.9-6.9c-7.9,0-11.7,15.2-22.4,15.2
		c-5.2,0-8.7-4.4-9.1-9.5c18.1-1.2,38.6-14.1,38.6-34.1c0-7-3.6-11.8-12.7-11.8c-14.2,0-27.3,10.8-35.1,23.2l0,0c0,0,0,0,0,0
		c-1.2,1.9-2.2,3.8-3.2,5.8c-5.2,9.2-15.3,26.3-19.5,26.3c-2,0-2.8-1.2-2.8-3.3c0-4.9,17.9-31.3,19.8-37.2c0,0,0,0,0,0c0,0,0,0,0,0
		c0.1-0.3,0.2-0.6,0.2-0.8c0-5.9-4.9-9.8-8.9-9.8c-3,0-9.2,8.9-14.6,19.5l0,0c0,0-15.8,28.6-29,28.6c-3.7,0-6.2-3.9-6.2-8.1
		c0-0.8,0-1.7,0-2.5c23.4-8.2,45.8-43.1,45.8-65.2c0-10.4-3.6-15.1-11.2-15.1c-22.2,0-46.3,37.1-49.9,71.4c-3,0.1-5.8,0.3-8.4,0.5
		c-1-10.3-3-19.2-3-21.2c0-3.5,3.1-3.8,3.1-7c0-4.9-2.8-7-7.1-7c-0.2,0-0.4,0-0.7,0c-0.1,0-0.2,0-0.2,0c-0.2,0-0.3,0-0.5,0.1
		c0,0-0.1,0-0.1,0c-8.1,1.9-21.1,17.9-31.1,31.5c-10.9,13.1-22.1,25.4-31,25.4c-5.9,0-8.3-4.4-8.5-9.5c18.1-1.2,38.6-14.1,38.6-34.1
		c0-7-3.6-11.8-12.7-11.8C202.1,73.6,182.3,101,182.3,118.7z M254.2,130.2c-1.5,0-2.8-1.2-2.8-3c0-3.1,4-5.4,10.4-7.1
		C261,125.8,258.8,130.2,254.2,130.2z M402,89.2c0,9.1-12.7,17.7-25.6,18.7C382.2,88.2,402,77.9,402,89.2z M335.4,46.2
		c1,0,1.9,1.5,1.9,3.7c0,12.6-15.8,42.8-34.2,53C308.4,73.9,327.2,46.2,335.4,46.2z M225.9,89.2c0,9.1-12.7,17.7-25.6,18.7
		C206.1,88.2,225.9,77.9,225.9,89.2z"/>
	<path class="st0" d="M361.1,77.8c8.4,0,12.2-6.6,12.2-11c0-4.4-2.4-8.5-6.7-8.5c-6.5,0-11.3,6.9-11.6,12.5
		C354.6,74.6,357.9,77.8,361.1,77.8z"/>
	<path class="st0" d="M106.1,159c11.5,0,22.1-8.2,31.7-20.3c20.1,9.9,41.7,24.2,64,24.2c14.5,0,35-3.6,35-16.1
		c0-2.9-1.9-5.5-5.4-5.5c-12,0-9.9,9.9-24.6,9.9c-19.3,0-40.1-13.3-61.4-23.1c4.9-7.4,9.4-15.5,13.8-23.7
		c30.3-10.6,55.8-38,55.8-58.9c0-10-4.8-15.1-12.4-15.1c-24,0-42.8,35.7-59.9,67.6c-1.2,0.1-2.4,0.2-3.6,0.2
		c-16.7,0-26.3-10.6-26.3-24.6c0-17,8.4-31.3,21.2-31.3c6.2,0,10.9,4.7,10.9,10.4c0,19-22.4,11.7-22.4,25.2c0,3.9,2.9,7.5,7.6,7.5
		c12.8,0,25.9-14.9,25.9-31.8c0-11-7.5-23.2-22.7-23.2c-22.5,0-36.9,19.1-36.9,42.5c0,21.2,17.3,36.1,37.9,36.1c0.8,0,1.6,0,2.4,0
		c-2.5,4.5-5,8.9-7.4,12.9c-7.3-2.4-14.7-3.9-22.1-3.9c-15.2,0-25.5,8.7-25.5,20.7C81.8,151.2,94.4,159,106.1,159z M197.6,43.7
		c2.4,0,5.2,1.1,5.2,4.7c0,12.3-16.9,30.6-36,41.3C179.1,65.2,189.3,43.7,197.6,43.7z M106.9,129.4c5.1,0,10.3,1.1,15.6,2.8
		c-6.6,9-13.2,14.7-19.9,14.7c-6.2,0-9.7-2.3-9.7-7.8C92.8,133.6,99.2,129.4,106.9,129.4z"/>
	<path class="st0" d="M204.8,243.5c8.8,0,20.4-5.7,20.4-11.5c0-4.2-1.4-6-4.6-6c-3.9,0-5.6,9-10.2,9c-1,0-1.7-0.8-1.7-2
		c0-5.5,15-22.5,15-30.8c0-6.1-2.8-8.4-6.3-8.4c-5.4,0-11,2.7-16.4,6.9c1.6-3.8,2.7-6.6,2.7-7.5c0-2.8-2.2-4.3-5.8-4.3
		c-3.1,0-11,14-17.8,27c-4.8,7.5-12.4,18.4-16.1,18.4c-1,0-1.5-0.6-1.5-1.8c0-5.5,14.2-20.8,14.2-29c0-6.1-2.8-8.4-6.3-8.4
		c-6.3,0-12.7,3.7-18.6,8.8c1.5-3.2,3-6.5,4.6-9.5c18-1.1,33.6-6.1,33.6-19.7c0-8.3-3.9-13-14-13c-9,0-18.9,11.1-27.5,24.9
		c-5.1-1-8.7-3.8-8.7-8.1c0-3.2,1.6-4.5,4.2-4.5c1.4,0,3,1.3,5.6,1.3c3.2,0,5.6-2.6,5.6-5.7c0-4.7-3.3-7-10.6-7
		c-10.8,0-17.1,6.7-17.1,14c0,8.9,6.1,16,16.4,17.5c-4,7.2-7.7,14.6-10.7,21.3c-2,1-4,1.8-6,2.1c3.5-12.1,1.3-23.9-10.2-23.9
		c-15.3,0-31.4,14.5-31.4,32.9c0,8.3,4.2,17,15.7,17c9.3,0,17.4-7.7,22.3-17.1c1.8-0.1,3.6-0.4,5.2-0.8c-2.9,7-4.6,11.8-4.6,12.5
		c0,3,2.1,5.7,7.8,5.7c2.3,0,6.1-8.6,10.9-19.9c7.5-8.8,15.9-17.7,19.1-17.7c1.2,0,1.4,0.4,1.4,1.6c0,3.4-14.4,20.5-14.4,26.9
		c0,6.1,4.1,8.7,9.3,8.7c3.3,0,7.3-1.9,11.1-4.5c0.4,2.2,2.3,4.2,4.5,4.6l0,0.1c0,0,0,0,0.1-0.1c0.3,0,0.5,0.1,0.8,0.1
		c2.5,0,8.3-8.8,14-19.1c8-9.7,16.9-19.6,20.1-19.6c1.2,0,1.4,0.4,1.4,1.6c0,3.4-14.9,21.7-14.9,28.2
		C195.6,240.9,199.7,243.5,204.8,243.5z M177.2,171.5c2.7,0,4.2,1.7,4.2,4.3c0,4.5-8.6,9.3-20.7,10.8
		C166,177.8,171.6,171.5,177.2,171.5z M118.8,203.2c-7.9,0-11.3,15.4-3.8,21.2c-3.5,6.1-8.1,10.8-12.3,10.8c-2.9,0-4.8-2.5-4.8-6.3
		c0-11.6,10.7-27,19.3-27c1.1,0,2.1,0.4,2.8,1.3C119.7,203.3,119.2,203.2,118.8,203.2z"/>
	<path class="st0" d="M451.6,226.1c-3.9,0-5.6,9-10.2,9c-1,0-1.7-0.8-1.7-2c0-5.5,15-22.5,15-30.8c0-6.1-2.8-8.4-6.3-8.4
		c-5.7,0-11.6,3-17.2,7.5c1.8-4.1,3-7.1,3-8.1c0-2.8-2.2-4.3-5.8-4.3c-4.4,0-19.7,28-26.6,41.4c-3.2,2.7-6.3,4.7-8.1,4.7
		c-8.5,0,11.5-26,11.5-31c0-4.4-3.7-7.4-6.8-7.4c-0.2,0-0.3,0-0.5,0.1l0,0c0,0,0,0,0,0c-3.3,0.9-7.9,9.9-13,19
		c-7.6,9.8-17.1,19.6-24.4,19.6c-4.4,0-6.3-3.3-6.4-7.2c13.6-0.9,29.1-10.7,29.1-25.8c0-5.3-2.7-8.9-9.6-8.9c-17.1,0-32,20.6-32,34
		c0,12.2,8.1,16.2,17.5,16.2c6.4,0,13.4-4,19.9-9.4l-0.1,1.1c0,0,1.1,7.7,9.9,7.7c3.5,0,7.3-1.1,10.7-2.6c1.3,1.8,3.4,3.2,5.4,3.2
		c0.1,0,0.1,0,0.2,0l0,0c0,0,0,0,0,0c2.3-0.5,7.1-7.2,12-15.6c8.6-10.7,19.3-23.1,22.9-23.1c1.2,0,1.4,0.4,1.4,1.6
		c0,3.4-14.9,21.7-14.9,28.2c0,6.1,4.1,8.7,9.3,8.7c8.8,0,20.4-5.7,20.4-11.5C456.2,227.9,454.8,226.1,451.6,226.1z M374.5,205.3
		c0,6.9-9.6,13.3-19.3,14.1C359.6,204.6,374.5,196.8,374.5,205.3z"/>
	<path class="st0" d="M432.3,276.3c-2.5,0-7.3,2.6-15.9,5.4c-8-13.4-26.4-24-56.9-24c-35,0-64.1,13.7-79.1,22.4
		c-52.5-10.4-100.9-25.8-144.4-25.8c-15.4,0-25.2,2.6-44,2.6c-19.2,0-27.8-9.8-27.8-23.5c0-6.5,0.6-13.4,1.7-20
		c22.3-6,43.8-21.8,43.8-39.1c0-6.8-5.7-12.7-13.1-12.7c-20.8,0-38.7,19.5-46.3,45.3c-6.3-0.8-8.9-4.6-8.9-8.9c0-8.6,9.3-8,9.3-13.5
		c0-4-2.3-7.2-6.3-7.2c-8.8,0-15.1,12.2-15.1,20.8c0,11.4,8.6,17.9,18.9,17.9c0,0,0,0,0,0c-1.1,5.8-1.7,11.9-1.7,18
		c0,23,15.5,34.8,38.9,34.8c10.6,0,34.3-4.6,54.7-4.6c59.6,0,131.2,39.3,232.8,39.3c12.1,0,23.4-2,33-5c0.1,1.1,0.2,2.2,0.2,3.3
		c0,15.8-14.6,30.3-47.3,30.3c-109.7,0-160.7-40.2-232.3-40.2c-17.9,0-32.3,10.3-32.3,14.7c0,1.6,0.4,2.7,2.1,2.7
		c4.7,0,5.4-7.4,33.5-7.4c25.1,0,49.5,6.4,76.5,14.2c-10.6,5.7-36.1,17.6-65.4,17.6c-55.5,0-65.5-28.7-73.1-28.7
		c-13,0,23.6,37.8,66.1,37.8c39.4,0,75.3-16.3,87.3-22.4c37.6,10.8,81.1,22.4,138.6,22.4c41,0,61.6-20.6,61.6-44c0-2-0.2-4-0.6-6
		c9.9-4.9,16-10.2,16-13.2C436.5,277.6,435.2,276.3,432.3,276.3z M95,169.6c2.9,0,6.2,2.6,6.2,6.5c0,11-16.8,23.1-33.5,28.2
		C72.6,185.3,82.2,169.6,95,169.6z M363.6,289.3c-23.8,0-47-2.7-69.5-6.7c13.2-6.7,36.8-16,65.4-16c19.1,0,34.2,8,41.5,19.2
		C391.4,287.8,379.1,289.3,363.6,289.3z"/>
	<path class="st0" d="M305.2,249.7c-1.2,0-2.7-6.4-3.5-14.4c10.2-9.7,18.3-20,18.3-26.6c0-7.6-3.7-11.7-10.5-11.7
		c-10.9,0-20.5,17.9-20.5,33.8c0,1.5,0,3.1,0.1,4.6c-9.2,8.2-18.2,14.9-20.4,14.9c-2.5,0,26.7-44.9,26.7-63.3
		c0-11-2.8-20.3-20.4-19.7c-26.2,0.8-45.3,16.9-45.3,42.5c0,8.4,6.7,16.2,14.3,16.2c15,0,24.4-15.3,24.4-19.8c0-4.5-2.7-6.5-5.6-6.5
		c-6.1,0-8.2,5-8.2,8.1c0,3.1-0.4,4.7-0.4,4.7c0,1.7-5.3,4.3-8.6,4.3c-4.5,0-6.4-3.8-6.4-8.4c0-20.1,15.9-31.5,32.4-31.5
		c7.8,0,11.7,5,11.7,10.9c0,13.4-31.4,55.4-31.4,65.5c0,5.7,3.2,8.5,9.4,8.5c5.1,0,17.2-7.3,29.1-16.8c2.2,9.8,6.7,16.8,12.9,16.8
		c18.4,0,42.3-96.1,98.4-96.1c11.9,0,17.5,5.2,17.5,9.5c0,2.6-3.4,4.7-5.9,4.7c-5.3,0-5.7-2.7-10.6-2.7c-8.8,0-9.5,14.2,3.4,14.2
		c13.8,0,21.4-8.5,21.4-16.8c0-9.7-11.5-16.8-25.4-16.8C339.3,157.6,310.3,249.7,305.2,249.7z M308.4,205.2c2.6,0,2.9,1.5,2.9,3.4
		c0,3.1-4.2,8.8-10,14.9C301.4,213.8,303.3,205.2,308.4,205.2z"/>
	<polygon class="st0" points="133.1,271.3 125,271.3 125,284.2 127.4,284.2 127.4,279 132.2,278.9 132.2,277 127.4,277 127.4,273.2 
		133.1,273.2 	"/>
	<path class="st0" d="M146.4,278.1c0.3-0.3,0.5-0.6,0.6-1s0.2-0.8,0.3-1.2c0-0.5,0-1.1-0.2-1.5c-0.2-0.5-0.4-0.9-0.8-1.2
		c-0.4-0.4-0.9-0.6-1.5-0.9c-0.6-0.2-1.4-0.4-2.2-0.4l-3.9-0.3l-0.9,12.9l2.4,0.2l0.4-5l1,0.1c0.2,0,0.4,0.1,0.5,0.1
		c0.1,0.1,0.2,0.2,0.3,0.4l2.4,4.3c0.1,0.2,0.2,0.3,0.3,0.4c0.1,0.1,0.3,0.1,0.5,0.2l2.2,0.2l-2.9-5c-0.2-0.3-0.4-0.6-0.7-0.8
		c0.5-0.1,0.9-0.3,1.2-0.5C145.8,278.6,146.1,278.4,146.4,278.1z M144.7,276.7c-0.1,0.3-0.3,0.5-0.5,0.7s-0.5,0.3-0.9,0.4
		c-0.3,0.1-0.7,0.1-1.2,0.1l-1.5-0.1l0.3-4.3l1.5,0.1c0.9,0.1,1.5,0.3,1.9,0.7c0.4,0.4,0.6,0.9,0.5,1.6
		C144.9,276.2,144.8,276.5,144.7,276.7z"/>
	<path class="st0" d="M154.8,285.6c0.8,0.4,1.6,0.7,2.6,0.9c1,0.1,1.9,0.1,2.7-0.1c0.8-0.2,1.6-0.6,2.2-1.1c0.6-0.5,1.2-1.1,1.6-1.9
		c0.4-0.8,0.7-1.6,0.8-2.5s0.1-1.8-0.1-2.7c-0.2-0.8-0.5-1.6-1-2.3c-0.5-0.7-1.1-1.2-1.9-1.6c-0.8-0.4-1.6-0.7-2.6-0.9
		c-1-0.1-1.9-0.1-2.7,0.1c-0.8,0.2-1.6,0.6-2.2,1.1c-0.6,0.5-1.2,1.1-1.6,1.9c-0.4,0.8-0.7,1.6-0.8,2.5s-0.1,1.8,0.1,2.7
		c0.2,0.8,0.5,1.6,1,2.3C153.4,284.6,154,285.2,154.8,285.6z M154.2,279.3c0.1-0.7,0.3-1.3,0.5-1.9c0.3-0.5,0.6-1,1-1.3
		c0.4-0.3,0.9-0.6,1.4-0.7c0.5-0.1,1.1-0.2,1.7-0.1c0.6,0.1,1.2,0.3,1.6,0.5s0.9,0.6,1.1,1.1c0.3,0.4,0.5,0.9,0.6,1.5s0.1,1.2,0,1.9
		c-0.1,0.7-0.3,1.3-0.5,1.9c-0.3,0.5-0.6,1-1,1.3c-0.4,0.3-0.9,0.6-1.4,0.7c-0.5,0.1-1.1,0.2-1.7,0.1c-0.6-0.1-1.2-0.3-1.6-0.5
		c-0.5-0.3-0.9-0.6-1.2-1.1c-0.3-0.4-0.5-0.9-0.6-1.5S154.1,280,154.2,279.3z"/>
	<path class="st0" d="M172.1,280.1c0-0.2,0.1-0.4,0.1-0.6l4.9,9.8c0.1,0.2,0.2,0.3,0.3,0.4s0.3,0.1,0.4,0.2l1.2,0.2l2.5-12.7
		l-2.1-0.4l-1.5,7.7c0,0.2-0.1,0.4-0.1,0.6c0,0.2-0.1,0.4-0.1,0.6l-5-9.8c0-0.1-0.1-0.2-0.1-0.2c0-0.1-0.1-0.1-0.1-0.1
		c-0.1,0-0.1-0.1-0.2-0.1c-0.1,0-0.2,0-0.3-0.1l-1.2-0.2l-2.5,12.7l2.1,0.4l1.5-7.8C172,280.5,172,280.3,172.1,280.1z"/>
	<polygon class="st0" points="189.3,292.6 192,282 195.7,282.9 196.2,281 186.3,278.5 185.8,280.4 189.6,281.4 187,292 	"/>
	<polygon class="st0" points="214.2,288.3 214.8,286.5 207,284.1 203.2,296.4 211,298.8 211.5,297 206.1,295.3 207.1,291.8 
		211.5,293.2 212,291.4 207.7,290 208.8,286.6 	"/>
	<path class="st0" d="M220.1,293c0-0.2,0.1-0.4,0.1-0.6l3.9,10.2c0.1,0.2,0.2,0.3,0.3,0.4c0.1,0.1,0.2,0.2,0.4,0.2l1.2,0.4l3.9-12.3
		l-2-0.6l-2.4,7.5c-0.1,0.2-0.1,0.3-0.2,0.5c-0.1,0.2-0.1,0.4-0.1,0.6l-3.9-10.3c0-0.1-0.1-0.2-0.1-0.2c0-0.1-0.1-0.1-0.1-0.2
		c0,0-0.1-0.1-0.2-0.1s-0.1-0.1-0.3-0.1l-1.2-0.4l-3.9,12.3l2,0.6l2.4-7.6C220,293.3,220,293.2,220.1,293z"/>
	<path class="st0" d="M240.9,306.1c0.7-0.4,1.3-0.9,1.8-1.6s0.9-1.5,1.2-2.4c0.3-0.9,0.3-1.8,0.2-2.6c-0.1-0.8-0.3-1.6-0.7-2.3
		c-0.4-0.7-0.9-1.3-1.6-1.8c-0.7-0.5-1.5-0.9-2.4-1.2l-4.8-1.3l-3.5,12.4l4.8,1.3c0.9,0.3,1.8,0.3,2.7,0.3
		C239.4,306.7,240.2,306.5,240.9,306.1z M236.4,304.7L234,304l2.4-8.8l2.4,0.7c0.6,0.2,1.1,0.4,1.6,0.8c0.4,0.3,0.8,0.7,1,1.2
		c0.2,0.5,0.4,1,0.4,1.6c0,0.6,0,1.2-0.2,1.9c-0.2,0.7-0.5,1.3-0.8,1.8c-0.3,0.5-0.7,0.9-1.2,1.2s-0.9,0.5-1.5,0.5
		C237.6,304.9,237,304.9,236.4,304.7z"/>
	<path class="st0" d="M260.3,312.3c0.9-0.1,1.6-0.4,2.3-0.8c0.7-0.4,1.3-1,1.8-1.7c0.5-0.7,0.8-1.5,1.1-2.4c0.2-0.9,0.3-1.8,0.1-2.6
		c-0.1-0.8-0.4-1.6-0.8-2.3c-0.4-0.7-1-1.3-1.7-1.8c-0.7-0.5-1.5-0.9-2.5-1.1l-4.8-1.1l-2.9,12.6l4.8,1.1
		C258.5,312.3,259.4,312.4,260.3,312.3z M258,310.3l-2.4-0.6l2.1-8.9l2.4,0.6c0.6,0.1,1.1,0.4,1.6,0.7c0.4,0.3,0.8,0.7,1,1.2
		c0.3,0.5,0.4,1,0.5,1.6c0.1,0.6,0,1.2-0.2,1.9c-0.2,0.7-0.4,1.3-0.7,1.8c-0.3,0.5-0.7,0.9-1.1,1.2c-0.4,0.3-0.9,0.5-1.5,0.6
		C259.2,310.4,258.6,310.4,258,310.3z"/>
	<polygon class="st0" points="278.7,305.4 279.1,303.6 271.1,301.9 268.5,314.6 276.5,316.2 276.9,314.3 271.3,313.2 272,309.6 
		276.4,310.5 276.8,308.7 272.4,307.8 273.1,304.3 	"/>
	<path class="st0" d="M294.7,306.4l-1.9-0.3c-0.2,0-0.4,0-0.5,0.1c-0.2,0.1-0.3,0.2-0.3,0.3l-4.4,7.2c-0.3,0.5-0.6,1-0.8,1.7
		c0-0.3-0.1-0.7-0.1-1c0-0.3-0.1-0.6-0.1-0.9l-1.6-8.3c0-0.2-0.1-0.3-0.2-0.4c-0.1-0.1-0.3-0.2-0.5-0.2l-1.9-0.3l2.9,13.6l2.1,0.4
		L294.7,306.4z"/>
	<polygon class="st0" points="306.2,310.1 306.5,308.2 298.4,307 296.5,319.8 304.6,321 304.8,319.1 299.2,318.2 299.7,314.6 
		304.2,315.3 304.5,313.4 300,312.8 300.5,309.2 	"/>
	<polygon class="st0" points="311,308.8 309.4,321.6 316.9,322.5 317.2,320.5 312,319.9 313.3,309.1 	"/>
	<path class="st0" d="M323.8,322.8c0.8,0.4,1.7,0.6,2.6,0.7c1,0.1,1.9,0,2.7-0.3c0.8-0.3,1.6-0.7,2.2-1.2c0.6-0.5,1.1-1.2,1.5-2
		c0.4-0.8,0.6-1.6,0.7-2.6c0.1-0.9,0-1.8-0.2-2.7c-0.2-0.8-0.6-1.6-1.1-2.2c-0.5-0.6-1.2-1.2-1.9-1.6c-0.8-0.4-1.6-0.6-2.6-0.7
		c-1-0.1-1.9,0-2.7,0.3c-0.8,0.3-1.6,0.7-2.2,1.2c-0.6,0.5-1.1,1.2-1.5,2c-0.4,0.8-0.6,1.6-0.7,2.6c-0.1,0.9,0,1.8,0.2,2.7
		c0.2,0.8,0.6,1.6,1.2,2.2C322.4,321.9,323,322.4,323.8,322.8z M322.9,316.6c0.1-0.7,0.2-1.3,0.4-1.9c0.2-0.5,0.5-1,0.9-1.4
		c0.4-0.4,0.8-0.6,1.4-0.8c0.5-0.2,1.1-0.2,1.7-0.2c0.6,0.1,1.2,0.2,1.7,0.5s0.9,0.6,1.2,1c0.3,0.4,0.5,0.9,0.7,1.5
		c0.1,0.6,0.2,1.2,0.1,1.9c-0.1,0.7-0.2,1.3-0.4,1.9c-0.2,0.5-0.5,1-0.9,1.4c-0.4,0.4-0.8,0.6-1.4,0.8c-0.5,0.2-1.1,0.2-1.7,0.2
		c-0.6-0.1-1.2-0.2-1.7-0.5c-0.5-0.2-0.9-0.6-1.2-1c-0.3-0.4-0.6-0.9-0.7-1.5C322.9,318,322.8,317.3,322.9,316.6z"/>
	<path class="st0" d="M342.2,319.9c0.8,0,1.6,0,2.2-0.2c0.6-0.2,1.2-0.5,1.6-0.8s0.8-0.8,1-1.3c0.2-0.5,0.4-1.1,0.4-1.7
		c0-0.6-0.1-1.2-0.2-1.7c-0.2-0.5-0.5-1-0.9-1.3c-0.4-0.4-0.9-0.7-1.5-0.9c-0.6-0.2-1.4-0.4-2.2-0.4l-4.2-0.2l-0.5,12.9l2.4,0.1
		l0.2-4.5L342.2,319.9z M340.6,313.3l1.8,0.1c0.4,0,0.8,0.1,1.1,0.2c0.3,0.1,0.6,0.3,0.8,0.5c0.2,0.2,0.4,0.4,0.5,0.7
		c0.1,0.3,0.1,0.6,0.1,0.9c0,0.4-0.1,0.7-0.2,1c-0.1,0.3-0.3,0.5-0.5,0.7c-0.2,0.2-0.5,0.3-0.8,0.4c-0.3,0.1-0.7,0.1-1.2,0.1
		l-1.8-0.1L340.6,313.3z"/>
	<polygon class="st0" points="360.1,311.6 352,311.7 352.2,324.6 360.3,324.5 360.3,322.6 354.6,322.7 354.5,319 359,319 359,317.1 
		354.5,317.2 354.4,313.6 360.1,313.5 	"/>
	<path class="st0" d="M373.4,316.6c0.2-0.3,0.4-0.7,0.5-1.1c0.1-0.4,0.1-0.8,0.1-1.2c-0.1-0.5-0.2-1-0.4-1.5s-0.6-0.8-1-1.1
		c-0.4-0.3-1-0.5-1.6-0.6c-0.6-0.1-1.4-0.1-2.3-0.1l-3.9,0.4l1.2,12.9l2.4-0.2l-0.5-5l1-0.1c0.2,0,0.4,0,0.5,0
		c0.1,0.1,0.2,0.2,0.4,0.3l3.1,3.9c0.1,0.1,0.2,0.3,0.4,0.3c0.2,0.1,0.3,0.1,0.5,0.1l2.2-0.2l-3.7-4.4c-0.2-0.3-0.5-0.5-0.9-0.7
		c0.4-0.2,0.8-0.4,1.2-0.7C372.9,317.2,373.2,316.9,373.4,316.6z M371.5,315.5c-0.1,0.3-0.2,0.5-0.4,0.8c-0.2,0.2-0.5,0.4-0.8,0.5
		c-0.3,0.1-0.7,0.2-1.2,0.3l-1.5,0.1l-0.4-4.3l1.5-0.1c0.9-0.1,1.6,0,2,0.3s0.7,0.8,0.8,1.4C371.6,315,371.6,315.3,371.5,315.5z"/>
</g>
</svg>
