<?xml version="1.0" encoding="utf-8"?>
<!-- Generator: Adobe Illustrator 19.2.0, SVG Export Plug-In . SVG Version: 6.00 Build 0)  -->
<svg version="1.1" id="Layer_1" xmlns="http://www.w3.org/2000/svg" xmlns:xlink="http://www.w3.org/1999/xlink" x="0px" y="0px"
	 width="379.3px" height="172.6px" viewBox="0 0 379.3 172.6" style="enable-background:new 0 0 379.3 172.6;" xml:space="preserve"
	>
<style type="text/css">
	.st0{fill:#FFFFFF;}
</style>
<g>
	<path class="st0" d="M43.8,50.9c0-3.8,2-6.7,5.3-8.7c3.6,2.8,8.2,4.9,12.1,5.6c5.4-14.9,11.3-29.5,14.7-35c4.4-7,10.2-9.7,16.4-9.7
		c14.7,0,24.5,10,24.5,20.8c0,12.6-12.8,27.6-40.8,36.4c-1.5,4.4-5.9,11.9-9.5,17.2c33.6,5.6,40.8,15.8,40.8,24.6
		c0,6.3-3.8,11.3-8.3,12.6c-9.2-7.9-21.1-14.4-45.9-20.1c-4.5,4.3-8.3,6.9-12.2,6.9c-6.3,0-12.1-9.9-12.1-16.8
		c0-5.9,3.4-8.7,12.8-8.7c2.1,0,4.5,0.1,7.3,0.4c2.9-5.5,5.3-10.4,7.4-15.6C49,59.9,43.8,55.9,43.8,50.9z M79.5,47.6
		C92.7,42.4,101,34.3,101,27c0-3.9-4.4-7-9.4-7c-1.6,0-3.4,1.1-5,6.7L79.5,47.6z"/>
	<path class="st0" d="M110.3,78.1c0-19,15.4-38.3,27.6-38.3c8.7,0,13.4,4.1,13.4,12.9c0,10.5-6.2,18.7-23.3,22.6
		c0,5.6,1.1,8.8,6,8.8c8.5,0,19.6-7.3,26.7-18.2c3,0.1,4.8,2.1,4.8,4.1c0,9.3-21,29.2-37.3,29.2C115.9,99.3,110.3,91.7,110.3,78.1z
		 M134.8,53c-1.8,0-5.1,4.3-6,13.1c7-1.3,8.5-5.1,8.5-8.9C137.3,54.5,136.3,53,134.8,53z"/>
	<path class="st0" d="M242.7,14.5c0,4.3-2.4,9.8-11.4,17.2c-3.4,12.2-11.8,46.9-11.8,50.1c0,1.4,0.6,1.9,1.8,1.9
		c3.9,0,11.3-7.2,17.8-17.3c2.4,0,4.8,1.8,4.8,4.3c0,9.5-20.3,29.2-33,29.2c-7.3,0-9.9-3.1-9.9-9.7c0-8.4,3.9-23,5-28.2
		c1.9-8.9,3.6-18.6,5.5-28.5c0.1-0.8,0.3-1.6,0.5-2.5c-6.5-1-12.2-1.5-14.4-1.5c-4.6,0-7.4,3.1-7.7,9.2c7.3,0,11.4,1.5,11.4,5.3
		c0,4.8-5.1,11.9-9.9,11.9c-2.6,0-5.3-1.9-7.4-4.6c0.8,2,1.8,4.1,2.9,6.4c5.3,10.7,7.5,18.1,7.5,23.5c0,13.1-9.8,19.8-22.2,19.8
		c-9.8,0-19-6.7-19-19.1c0-7.4,2-19.6,8.2-19.6c4.4,0,7.9,5.6,7.9,8.8c0,2.6-1.1,4.5-3.3,6.9c1,5.5,5.3,9.3,8.2,9.3
		c1.3,0,2.6-0.8,2.6-2.9c0-6.4-7.5-24.1-7.5-31.9c0-5.3,2.8-9.8,9.5-12.7c-0.3-1.3-0.4-2.6-0.4-3.9c0-12.4,7.8-21.2,21.2-21.2
		c4.1,0,7.4,0.9,15.8,4.3c3.4-8.2,8.3-13.8,14.9-13.8C235.8,5.1,242.7,9.5,242.7,14.5z"/>
	<path class="st0" d="M237.8,63.4c0-7.4,11.2-20.6,19-20.6c5.8,0,6.3,3.1,6.3,8c0,3.3-2.1,8.5-4.4,13.8c-3.5,8.7-5.1,12.7-5.1,15.6
		c0,1.4,0.6,1.9,1.8,1.9c1.8,0,7.4-4,15.8-15.9c2.4,0,4.9,2,4.9,4.5c0,7.9-20,29.1-31.5,29.1c-7.4,0-9.9-3.3-9.9-10.2
		c0-5.5,1.4-10.7,4.5-18.5C238.1,68.8,237.8,66,237.8,63.4z M261.4,9.7c5,0,10.7,5.5,10.7,9.4c0,3-2.4,7.9-8.4,15.3
		c-4.9,0-8.4-3.6-8.4-10.9C255.3,13.4,257.4,9.7,261.4,9.7z"/>
	<path class="st0" d="M265.9,78.1c0-19,15.4-38.3,27.6-38.3c8.7,0,13.4,4.1,13.4,12.9c0,10.5-6.2,18.7-23.3,22.6
		c0,5.6,1.1,8.8,6,8.8c8.5,0,19.6-7.3,26.7-18.2c3,0.1,4.8,2.1,4.8,4.1c0,9.3-21,29.2-37.3,29.2C271.6,99.3,265.9,91.7,265.9,78.1z
		 M290.4,53c-1.8,0-5.1,4.3-6,13.1c7-1.3,8.5-5.1,8.5-8.9C292.9,54.5,291.9,53,290.4,53z"/>
</g>
<g>
	<path class="st0" d="M0,151.6c0-21.5,17.5-45.5,32.5-45.5c8.5,0,12,4.3,12,11.6c0,8-5.1,16.6-11.2,16.6c-2.1,0-3.1-0.5-3.6-1.5
		c1.4-3.3,2.1-9.1,2.1-11c0-4-1.2-5.4-2.9-5.4c-4.7,0-13.9,16.6-13.9,31.5c0,8.2,2.3,12.2,9.8,12.2c7.1,0,16.1-5.6,21.2-13.5
		c1.8,0,3.3,0.7,3.3,2.8c0,6.5-16,23.3-31,23.3C6.7,172.6,0,165.3,0,151.6z"/>
	<path class="st0" d="M74.5,140.4c0,4.1-0.9,7.5-2.7,12.2c0.3,0.3,0.9,0.6,1.7,0.6c2.5,0,5-2,7.8-6.5c1.5,0,3.4,1.3,3.4,3.1
		c0,3.6-5.8,11.7-13.1,11.7c-1.5,0-2.5-0.3-3.4-0.9c-4.1,5.6-8.7,8.7-14.7,8.7c-6.1,0-10.9-4-10.9-12.5c0-14.3,9.5-27.5,18.6-27.5
		c2.2,0,5,0.9,5.1,3.8c0.9-0.9,1.6-1.2,3-1.2C72.8,131.9,74.5,136.5,74.5,140.4z M57.9,159c2.1,0,4.1-2,5.7-5.8
		c-0.7-2.7-0.9-5.2-0.9-7.5c0-2.9,0.6-7.5,1.9-10c-5.3,2.5-9.7,10.8-9.7,17.9C54.8,157.8,56.4,159,57.9,159z"/>
	<path class="st0" d="M98.7,105.7c3.7,0,5.6,1.7,5.6,6.1c0,3.8-1.9,8.8-8.6,19.9l-2.1,8.1c6.2-5.7,11.5-8.4,14.9-8.4
		c3.3,0,5,2.1,5,5.1c0,2.7-0.8,5.3-2.1,8.6c-1.5,3.8-4.3,10.7-4.3,12.9c0,0.9,0.4,1.3,1.2,1.3c1.5,0,6.9-4.2,12.5-12.2
		c1.6,0,3.4,1.1,3.4,2.8c0,5.4-14.6,20.5-22.5,20.5c-5.1,0-6.8-2.2-6.8-7c0-5.7,4.5-15.6,4.5-17.5c0-0.7-0.3-1.4-1.2-1.4
		c-1.5,0-3.5,0.9-5.8,2.9c-0.9,6.1-1.5,12.6-1.5,20.5c-0.8,0.9-2.2,1.2-4,1.2c-5,0-8.7-4.6-8.8-9c0-2.7,0.7-5.8,2.8-9.5
		C84.2,119.3,87.7,105.7,98.7,105.7z"/>
	<path class="st0" d="M119.4,143.1c0-5.1,7.7-14.1,13-14.1c2.9,0,3.7,1,3.7,3.6c0,2.1-1.1,8.2-3.4,12.4c6.3-10.8,12.2-14.7,16-14.7
		c4,0,5.9,2.6,5.9,5.9c0,2.3-0.7,5.3-2.5,9.5c-1.5,3.8-4.3,9.9-4.3,12c0,0.9,0.4,1.3,1.2,1.3c1.7,0,7.1-4.4,12.5-12
		c1.6,0,3.4,1.1,3.4,2.8c0,5.4-14.5,19.9-22.4,19.9c-5.1,0-6.8-2.2-6.8-7c0-5.7,4.4-14.4,4.4-16.2c0-0.7-0.3-1-1-1
		c-0.8,0-3.6,1.3-7,5.9c-1.2,6.6-1.7,10.5-2,16.3c-0.9,0.9-1.5,1.1-3.4,1.1c-4.8,0-8.3-4.6-8.4-9.7c0-3.3,0.7-6.8,2.1-10.7
		C119.6,146.8,119.4,144.8,119.4,143.1z"/>
	<path class="st0" d="M188.7,139.5c2.3,0.1,4.6,2.6,4.6,5.3c0,5.8-6.9,8.7-22.1,10.5c-1.3-0.4-2.2-1.8-2.2-3.4
		c0-2.4,1.2-3.7,5.3-5.2C180.6,144.7,183.7,143.1,188.7,139.5z"/>
	<path class="st0" d="M199.8,129.3c0-12.2,18.4-24.9,28.5-24.9c6.3,0,10.2,2.7,10.2,10.1c0,6.7-5.2,15.2-11.3,29.7
		c-2.1,4.9-2.8,7.9-2.8,10.7c0,2.4,1.4,4.4,4.2,4.4c3,0,5.8-2.9,9.1-7.6c0-15.9,7.4-33,15.3-33c3.7,0,6.2,2.1,6.2,5.9
		c0,9.5-6.1,20.3-12,29.1c0.8,3.3,2.1,5.4,4.2,5.4c7.1,0,17.5-17.6,17.5-34.6c0-4.8-1.7-7.8-6.4-13c0.7-3.7,3.6-5.5,7.8-5.5
		c7.5,0,11.3,6.9,11.3,14.6c0,23.2-15.5,49.3-32.4,49.3c-4.3,0-8-2.4-10.2-7.6c-5.6,6.3-11.3,8.9-17.2,8.9
		c-8.7,0-12.5-5.2-12.5-13.2c0-3.3,1.3-9.5,4.6-16.4C206.2,141.3,199.8,136.7,199.8,129.3z M217.3,134.2c3.7-8,7.1-13.9,7.1-17
		c0-2.1-0.5-2.5-1.6-2.5c-2.4,0-11.5,6.4-11.5,12.5C211.3,130,212.8,131.9,217.3,134.2z"/>
	<path class="st0" d="M279,154.9c0-13,10.6-26.2,18.9-26.2c5.9,0,9.2,2.8,9.2,8.9c0,7.2-4.2,12.8-16,15.5c0,3.9,0.8,6,4.1,6
		c5.8,0,13.4-5,18.3-12.5c2.1,0.1,3.3,1.5,3.3,2.8c0,6.4-14.4,20-25.5,20C282.9,169.4,279,164.2,279,154.9z M295.8,137.7
		c-1.2,0-3.5,2.9-4.1,8.9c4.8-0.9,5.8-3.5,5.8-6.1C297.5,138.7,296.8,137.7,295.8,137.7z"/>
	<path class="st0" d="M312.5,144.8c0-5.1,7.7-14.1,13-14.1c4,0,4.3,2.1,4.3,5.5c0,2.2-1.5,5.8-3,9.5c-2.4,5.9-3.5,8.7-3.5,10.7
		c0,0.9,0.4,1.3,1.2,1.3c1.2,0,5.1-2.8,10.8-10.9c1.6,0,3.4,1.4,3.4,3.1c0,5.4-13.7,19.9-21.6,19.9c-5.1,0-6.8-2.2-6.8-7
		c0-3.8,0.9-7.3,3.1-12.6C312.7,148.5,312.5,146.6,312.5,144.8z M328.6,108.1c3.4,0,7.3,3.8,7.3,6.4c0,2.1-1.6,5.4-5.8,10.5
		c-3.4,0-5.8-2.5-5.8-7.5C324.4,110.5,325.9,108.1,328.6,108.1z"/>
	<path class="st0" d="M333.9,143.1c0-5.1,7.7-14.1,13-14.1c2.9,0,3.7,1,3.7,3.6c0,2.1-1.1,8.2-3.4,12.4c6.3-10.8,12.2-14.7,16-14.7
		c4,0,5.9,2.6,5.9,5.9c0,2.3-0.7,5.3-2.5,9.5c-1.5,3.8-4.3,9.9-4.3,12c0,0.9,0.4,1.3,1.2,1.3c1.7,0,7.1-4.4,12.5-12
		c1.6,0,3.4,1.1,3.4,2.8c0,5.4-14.5,19.9-22.4,19.9c-5.1,0-6.8-2.2-6.8-7c0-5.7,4.4-14.4,4.4-16.2c0-0.7-0.3-1-1-1
		c-0.8,0-3.6,1.3-7,5.9c-1.2,6.6-1.7,10.5-2,16.3c-0.9,0.9-1.5,1.1-3.4,1.1c-4.8,0-8.3-4.6-8.4-9.7c0-3.3,0.7-6.8,2.1-10.7
		C334.1,146.8,333.9,144.8,333.9,143.1z"/>
</g>
</svg>
